<svg xmlns="http://www.w3.org/2000/svg" width="512" height="512" viewBox="0 0 512 512" role="img" aria-label="BAC Space">
  <defs>
    <radialGradient id="glow" cx="75%" cy="10%" r="70%">
      <stop offset="0" stop-color="#e4a84c" stop-opacity="0.22"/>
      <stop offset="1" stop-color="#06090f" stop-opacity="0"/>
    </radialGradient>
    <linearGradient id="bg" x1="0" y1="0" x2="1" y2="1">
      <stop offset="0" stop-color="#161e30"/>
      <stop offset="0.48" stop-color="#0b0f1a"/>
      <stop offset="1" stop-color="#06090f"/>
    </linearGradient>
    <linearGradient id="gold" x1="0" y1="0" x2="1" y2="1">
      <stop offset="0" stop-color="#f2c978"/>
      <stop offset="1" stop-color="#e4a84c"/>
    </linearGradient>
  </defs>
  <rect width="512" height="512" rx="112" fill="url(#bg)"/>
  <rect width="512" height="512" rx="112" fill="url(#glow)"/>
  <circle cx="390" cy="108" r="70" fill="#e4a84c" opacity="0.13"/>
  <circle cx="118" cy="394" r="92" fill="#3ccfbe" opacity="0.10"/>
  <path d="M145 138h154c48 0 81 28 81 70 0 27-14 48-38 60 32 12 51 37 51 73 0 51-38 84-98 84H145V138Zm68 62v46h81c17 0 27-9 27-24 0-14-10-22-27-22h-81Zm0 105v54h88c19 0 31-10 31-27s-12-27-33-27h-86Z" fill="url(#gold)"/>
  <path d="M132 441h248" stroke="#f2c978" stroke-width="14" stroke-linecap="round" opacity="0.78"/>
  <path d="M393 154l13 27 30 4-22 21 5 30-26-14-27 14 6-30-22-21 30-4 13-27Z" fill="#f2c978" opacity="0.9"/>
</svg>
